<?xml version="1.0" encoding="UTF-8"?>
<svg width="60px" height="54px" viewBox="0 0 60 54" version="1.1" xmlns="http://www.w3.org/2000/svg" xmlns:xlink="http://www.w3.org/1999/xlink">
    <!-- Generator: Sketch 44.1 (41455) - http://www.bohemiancoding.com/sketch -->
    <title>button</title>
    <desc>Created with Sketch.</desc>
    <defs>
        <polygon id="path-1" points="27.1634994 0 54.1150316 0 54.1150316 54 27.1634994 54 0.211967158 54 0.211967158 0"></polygon>
    </defs>
    <g id="Page-1" stroke="none" stroke-width="1" fill="none" fill-rule="evenodd">
        <g id="iPhone-7-Copy" transform="translate(-156.000000, -604.000000)">
            <g id="button" transform="translate(156.000000, 604.000000)">
                <g id="Group-3" transform="translate(4.985263, 0.000000)">
                    <mask id="mask-2" fill="white">
                        <use xlink:href="#path-1"></use>
                    </mask>
                    <g id="Clip-2"></g>
                    <path d="M27.1635461,54 C12.3024766,54 0.211967158,41.8877688 0.211967158,27 C0.211967158,25.9658844 1.04917979,25.1271676 2.08144084,25.1271676 C3.11370189,25.1271676 3.95091453,25.9658844 3.95091453,27 C3.95091453,39.822659 14.3638829,50.2543353 27.1635461,50.2543353 C39.9628977,50.2543353 50.3761777,39.822659 50.3761777,27 C50.3761777,14.177341 39.9628977,3.74566474 27.1635461,3.74566474 C22.6593608,3.74566474 18.2919587,5.03885549 14.5333819,7.48571098 C13.667504,8.04912139 12.5093651,7.80284393 11.9472766,6.93572254 C11.3845651,6.06828902 11.6304008,4.9083815 12.4962787,4.34465896 C16.8627461,1.5023237 21.9346282,0 27.1635461,0 C42.0246156,0 54.1151251,12.1122312 54.1151251,27 C54.1151251,41.8877688 42.0246156,54 27.1635461,54" id="Fill-1" fill="#FF6E31" mask="url(#mask-2)"></path>
                </g>
                <path d="M12.8309145,29.4971098 C12.3523293,29.4971098 11.8740556,29.3141965 11.5088851,28.9486821 L7.35024084,24.7825665 L3.19159663,28.9486821 C2.46156716,29.679711 1.27756716,29.679711 0.547537684,28.9486821 C-0.182491789,28.2170289 -0.182491789,27.031526 0.547537684,26.2998728 L7.35024084,19.4852601 L14.152944,26.2998728 C14.8829735,27.031526 14.8829735,28.2170289 14.152944,28.9486821 C13.7877735,29.3141965 13.3094998,29.4971098 12.8309145,29.4971098" id="Fill-4" fill="#FF6E31"></path>
                <g id="Group" transform="translate(22.000000, 16.000000)" stroke="#FF6E31" stroke-width="4" stroke-linecap="round">
                    <path d="M10.5,0.375 L10.5,20.6388841" id="Line"></path>
                    <path d="M20.5902893,10.5319211 L0.326405196,10.5319211" id="Line-Copy"></path>
                </g>
            </g>
        </g>
    </g>
</svg>