<?xml version="1.0" encoding="UTF-8"?>
<svg width="142px" height="125px" viewBox="0 0 142 125" version="1.1" xmlns="http://www.w3.org/2000/svg" xmlns:xlink="http://www.w3.org/1999/xlink">
    <!-- Generator: Sketch 44.1 (41455) - http://www.bohemiancoding.com/sketch -->
    <title>logo</title>
    <desc>Created with Sketch.</desc>
    <defs>
        <polygon id="path-1" points="0.155150994 11.4351564 8.43814226 11.4351564 8.43814226 0.161748316 0.155150994 0.161748316"></polygon>
        <polygon id="path-3" points="0.215809164 0.335562694 68.3577793 0.335562694 68.3577793 68.5520278 0.215809164 68.5520278"></polygon>
    </defs>
    <g id="Page-1" stroke="none" stroke-width="1" fill="none" fill-rule="evenodd">
        <g id="iPhone-7" transform="translate(-116.000000, -151.000000)">
            <g id="logo" transform="translate(116.000000, 151.000000)">
                <polygon id="Fill-1" fill="#FF6E31" points="0 78.7206027 0 83.2378838 6.60465061 83.2378838 6.60465061 101.894933 11.7054513 101.894933 11.7054513 83.2378838 18.309708 83.2378838 18.309708 78.7206027"></polygon>
                <g id="Group-40" transform="translate(14.179832, 0.058753)">
                    <path d="M9.62306416,94.8641257 C9.25241911,94.8641257 8.78921127,94.8806869 8.23344063,94.9134151 C7.67767,94.9461433 7.143563,95.0392018 6.63151351,95.1914077 C6.11907014,95.3447965 5.68343419,95.5734997 5.32342401,95.8790944 C4.96380772,96.1850834 4.78419652,96.6105501 4.78419652,97.1554944 C4.78419652,97.7446021 5.034313,98.181504 5.53612149,98.465017 C6.03714222,98.7489243 6.56061435,98.8904837 7.10535623,98.8904837 C7.58471332,98.8904837 8.04792117,98.8250273 8.49497976,98.6941144 C8.94164446,98.5632016 9.33946753,98.3778732 9.68844894,98.1377349 C10.0370365,97.8975966 10.3147249,97.5923963 10.5223018,97.2209508 C10.7290911,96.850294 10.8326826,96.4141808 10.8326826,95.9114283 L10.8326826,94.8641257 L9.62306416,94.8641257 Z M10.8326826,99.8396016 L10.7672978,99.8396016 C10.2221621,100.690535 9.4974151,101.301724 8.59305693,101.672776 C7.68830487,102.043432 6.73471118,102.229155 5.73227584,102.229155 C4.99098573,102.229155 4.27726753,102.125056 3.59072733,101.91804 C2.90379325,101.71063 2.29918097,101.399909 1.77610273,100.985089 C1.25302448,100.571057 0.838658282,100.058053 0.533398011,99.4468632 C0.22813774,98.8360681 0.0757045472,98.1266941 0.0757045472,97.3195298 C0.0757045472,96.4027457 0.244286993,95.6283096 0.582633539,94.9950385 C0.920192316,94.3629503 1.37788578,93.8389047 1.95571393,93.4240846 C2.5331482,93.0096587 3.19251038,92.6875028 3.93419437,92.4584053 C4.6746967,92.2293079 5.44316482,92.0609351 6.23920483,91.9513153 C7.03445707,91.8420898 7.83010319,91.7766334 8.62574932,91.754946 C9.42139544,91.733653 10.1567773,91.7218235 10.8326826,91.7218235 C10.8326826,90.8492028 10.5223018,90.1567844 9.90114642,89.6433853 C9.27959712,89.1311691 8.54421528,88.8744696 7.69421314,88.8744696 C6.88753825,88.8744696 6.15176253,89.043631 5.48727985,89.3815596 C4.8220094,89.7202768 4.22842588,90.1839921 3.70534764,90.7730999 L1.08916865,88.0885983 C2.00494946,87.2376649 3.07276958,86.5996621 4.29381066,86.1738011 C5.51406398,85.7487287 6.77843232,85.5357982 8.08652182,85.5357982 C9.52498699,85.5357982 10.7070335,85.7156062 11.6338431,86.0760108 C12.5602588,86.4356267 13.3015489,86.9651928 13.8573195,87.6631316 C14.4130902,88.3618591 14.7998845,89.2183129 15.0180963,90.2328873 C15.2359143,91.2474617 15.3450202,92.420551 15.3450202,93.7513666 L15.3450202,101.836417 L10.8326826,101.836417 L10.8326826,99.8396016 Z" id="Fill-2" fill="#FF6E31"></path>
                    <path d="M16.4560101,85.9284973 L21.164502,85.9284973 L21.164502,88.0889532 L21.2298868,88.0889532 C21.3819261,87.7833585 21.600138,87.4785524 21.8837346,87.1721691 C22.1669374,86.8669687 22.50489,86.5941022 22.8971987,86.3539639 C23.2895074,86.11422 23.7361721,85.9178507 24.2375867,85.7648562 C24.7390013,85.612256 25.2841371,85.5357588 25.8726001,85.5357588 C27.1153048,85.5357588 28.1173463,85.7270019 28.8806939,86.1083052 C29.6432538,86.4903972 30.2376251,87.0203575 30.6626261,87.6958204 C31.0876272,88.3724662 31.3763443,89.168984 31.5291714,90.0853738 C31.6812107,91.0017636 31.7580181,91.9954392 31.7580181,93.0644292 L31.7580181,101.836377 L26.8533718,101.836377 L26.8533718,94.0462754 C26.8533718,93.5880805 26.8372226,93.1133243 26.8045302,92.6224012 C26.7718378,92.1310838 26.6737606,91.6788037 26.5099048,91.2635892 C26.3464428,90.8491634 26.0959325,90.5112348 25.7579798,90.2494091 C25.4200272,89.9875835 24.9351557,89.8562763 24.3029715,89.8562763 C23.6707873,89.8562763 23.1587378,89.9710222 22.7664292,90.2001197 C22.3741205,90.4292171 22.0743746,90.7348118 21.8671915,91.1165094 C21.6596145,91.4986014 21.5241183,91.9299828 21.4587335,92.4098651 C21.3933488,92.889353 21.3606564,93.3917112 21.3606564,93.9153626 L21.3606564,101.836377 L16.4560101,101.836377 L16.4560101,85.9284973 Z" id="Fill-4" fill="#FF6E31"></path>
                    <path d="M45.4247765,93.8822006 C45.4247765,92.6822978 45.0813094,91.7110981 44.3947693,90.9693902 C43.7082291,90.2276823 42.7436066,89.8562369 41.5012958,89.8562369 C40.2585911,89.8562369 39.2943625,90.2276823 38.6074284,90.9693902 C37.9208882,91.7110981 37.5778151,92.6822978 37.5778151,93.8822006 C37.5778151,95.082892 37.9208882,96.0540917 38.6074284,96.7957996 C39.2943625,97.5379018 40.2585911,97.9085586 41.5012958,97.9085586 C42.7436066,97.9085586 43.7082291,97.5379018 44.3947693,96.7957996 C45.0813094,96.0540917 45.4247765,95.082892 45.4247765,93.8822006 L45.4247765,93.8822006 Z M49.9367202,101.836338 L45.4247765,101.836338 L45.4247765,99.7413382 L45.3593917,99.7413382 C45.1632374,100.025245 44.9068187,100.314279 44.5909236,100.608833 C44.2746346,100.903781 43.9043834,101.170733 43.4793823,101.410871 C43.0539874,101.651009 42.5852651,101.846984 42.0732157,101.999979 C41.5607723,102.152579 41.0321797,102.229076 40.4874378,102.229076 C39.3105117,102.229076 38.2422977,102.027187 37.2835835,101.623802 C36.3240816,101.220022 35.5016513,100.652602 34.8147172,99.9215405 C34.128177,99.1908734 33.5995844,98.3233788 33.2289394,97.3194509 C32.8582943,96.3159173 32.6731687,95.2138048 32.6731687,94.0131134 C32.6731687,92.9003544 32.8417512,91.8368849 33.1800977,90.8219161 C33.5176565,89.8073417 33.9974075,88.9071189 34.6185629,88.121642 C35.2397183,87.3357707 35.9967638,86.709203 36.890881,86.2391786 C37.7846043,85.7703372 38.7980684,85.5357193 39.9316672,85.5357193 C40.95616,85.5357193 41.9097537,85.69384 42.7924482,86.0104755 C43.6755367,86.327111 44.3998897,86.8669293 44.967083,87.6307189 L45.0324678,87.6307189 L45.0324678,77.0906592 L49.9367202,77.0906592 L49.9367202,101.836338 Z" id="Fill-6" fill="#FF6E31"></path>
                    <path d="M60.6608483,94.8641257 C60.2902033,94.8641257 59.8269955,94.8806869 59.2712248,94.9134151 C58.7154542,94.9461433 58.1809533,95.0392018 57.6689038,95.1914077 C57.1568543,95.3447965 56.7208245,95.5734997 56.3612082,95.8790944 C56.0015919,96.1850834 55.8215868,96.6105501 55.8215868,97.1554944 C55.8215868,97.7446021 56.0720972,98.181504 56.5739057,98.465017 C57.0749264,98.7489243 57.5983985,98.8904837 58.1427465,98.8904837 C58.6221036,98.8904837 59.0857054,98.8250273 59.5327639,98.6941144 C59.9794286,98.5632016 60.3768578,98.3778732 60.7262331,98.1377349 C61.0748207,97.8975966 61.352509,97.5923963 61.5596921,97.2209508 C61.7668752,96.850294 61.8700729,96.4141808 61.8700729,95.9114283 L61.8700729,94.8641257 L60.6608483,94.8641257 Z M61.8700729,99.8396016 L61.8046881,99.8396016 C61.2599462,100.690535 60.5351993,101.301724 59.6308411,101.672776 C58.7260891,102.043432 57.7721015,102.229155 56.77006,102.229155 C56.0287699,102.229155 55.3150517,102.125056 54.6285115,101.91804 C53.9415774,101.71063 53.3365713,101.399909 52.813493,100.985089 C52.2904148,100.571057 51.8760486,100.058053 51.5711822,99.4468632 C51.265528,98.8360681 51.1134887,98.1266941 51.1134887,97.3195298 C51.1134887,96.4027457 51.2820712,95.6283096 51.6200238,94.9950385 C51.9579765,94.3629503 52.41567,93.8389047 52.9934981,93.4240846 C53.5709324,93.0096587 54.2302946,92.6875028 54.9715847,92.4584053 C55.7124809,92.2293079 56.4805551,92.0609351 57.2765951,91.9513153 C58.0722413,91.8420898 58.8674935,91.7766334 59.6635335,91.754946 C60.4587857,91.733653 61.1945615,91.7218235 61.8700729,91.7218235 C61.8700729,90.8492028 61.5596921,90.1567844 60.9385367,89.6433853 C60.3173813,89.1311691 59.5816056,88.8744696 58.7316034,88.8744696 C57.9253224,88.8744696 57.1895467,89.043631 56.5246701,89.3815596 C55.8593997,89.7202768 55.2658162,90.1839921 54.7427379,90.7730999 L52.1269528,88.0885983 C53.0423398,87.2376649 54.1101599,86.5996621 55.331201,86.1738011 C56.5518482,85.7487287 57.8158226,85.5357982 59.1239121,85.5357982 C60.5623773,85.5357982 61.7448177,85.7156062 62.6716273,86.0760108 C63.5976491,86.4356267 64.3389392,86.9651928 64.8951037,87.6631316 C65.4504805,88.3618591 65.8376687,89.2183129 66.0554866,90.2328873 C66.2733046,91.2474617 66.3824105,92.420551 66.3824105,93.7513666 L66.3824105,101.836417 L61.8700729,101.836417 L61.8700729,99.8396016 Z" id="Fill-8" fill="#FF6E31"></path>
                    <path d="M67.4938336,85.9284973 L72.2019317,85.9284973 L72.2019317,88.0889532 L72.2673165,88.0889532 C72.4197497,87.7833585 72.6383554,87.4785524 72.9211643,87.1721691 C73.2043671,86.8669687 73.5427136,86.5941022 73.9354162,86.3539639 C74.3277249,86.11422 74.7736018,85.9178507 75.2754103,85.7648562 C75.7768249,85.612256 76.3215668,85.5357588 76.9100298,85.5357588 C78.021965,85.5357588 79.0078572,85.7648562 79.8696758,86.2230511 C80.7303129,86.681246 81.3786463,87.4012665 81.8146761,88.383507 C82.3814755,87.3578918 83.0680157,86.6272247 83.8746906,86.1903229 C84.6809716,85.7542097 85.6731659,85.5357588 86.8504859,85.5357588 C87.9179121,85.5357588 88.8167559,85.7155668 89.5474111,86.0759713 C90.2776725,86.4355873 90.8555006,86.9269047 91.2805017,87.5483463 C91.7055028,88.1709709 92.0103692,88.9020322 92.1958886,89.7419248 C92.3810142,90.5822116 92.4739709,91.4824344 92.4739709,92.4421989 L92.4739709,101.836377 L87.5697185,101.836377 L87.5697185,92.5731118 C87.5697185,91.8314039 87.4109831,91.193401 87.0954819,90.6583145 C86.7787989,90.1240167 86.2175139,89.8562763 85.4112329,89.8562763 C84.8444335,89.8562763 84.3701969,89.9493348 83.9893109,90.1346632 C83.6076371,90.320386 83.3023768,90.5766912 83.073924,90.9039733 C82.8446834,91.2312553 82.6816153,91.6133473 82.5831442,92.0490662 C82.4854609,92.485968 82.4362254,92.9441629 82.4362254,93.4240451 L82.4362254,101.836377 L77.5315791,101.836377 L77.5315791,93.4240451 C77.5315791,93.1405321 77.5201565,92.7915627 77.4984928,92.3767425 C77.4772231,91.9623167 77.4008095,91.5695782 77.27004,91.1981328 C77.1392704,90.8278703 76.9265729,90.5112348 76.6323414,90.2494091 C76.3381099,89.9875835 75.9075945,89.8562763 75.3407951,89.8562763 C74.708217,89.8562763 74.1969553,89.9710222 73.8042527,90.2001197 C73.411944,90.4292171 73.1121982,90.7348118 72.9050151,91.1165094 C72.6974381,91.4986014 72.5619419,91.9299828 72.4965571,92.4098651 C72.4311723,92.889353 72.3980861,93.3917112 72.3980861,93.9153626 L72.3980861,101.836377 L67.4938336,101.836377 L67.4938336,85.9284973 Z" id="Fill-10" fill="#FF6E31"></path>
                    <path d="M104.865923,92.0823464 C104.887587,91.2527061 104.615019,90.5437264 104.048219,89.9546187 C103.481026,89.3651166 102.751159,89.0705628 101.857829,89.0705628 C101.312693,89.0705628 100.832549,89.1581009 100.419364,89.3323884 C100.004604,89.5078589 99.6508959,89.7310417 99.3562705,90.0039081 C99.0624329,90.2767746 98.8331922,90.5930159 98.6701242,90.9530261 C98.5062683,91.3130364 98.4129178,91.6896079 98.391648,92.0823464 L104.865923,92.0823464 Z M109.017857,99.0869712 C108.233239,100.090899 107.241439,100.865335 106.042849,101.410674 C104.843472,101.956013 103.601161,102.228879 102.315523,102.228879 C101.094088,102.228879 99.9447335,102.03251 98.8662785,101.639771 C97.7866419,101.247033 96.8495913,100.685527 96.0543391,99.9540715 C95.2579052,99.2230101 94.6320231,98.3452633 94.1739358,97.3192537 C93.7162423,96.2940328 93.4870017,95.1481513 93.4870017,93.8820034 C93.4870017,92.6166442 93.7162423,91.4715513 94.1739358,90.4459361 C94.6320231,89.4199265 95.2579052,88.5417854 96.0543391,87.8103297 C96.8495913,87.0792683 97.7866419,86.5177627 98.8662785,86.1250242 C99.9447335,85.7322857 101.094088,85.5355222 102.315523,85.5355222 C103.44794,85.5355222 104.478341,85.7322857 105.40515,86.1250242 C106.331566,86.5177627 107.116184,87.0792683 107.759396,87.8103297 C108.401822,88.5417854 108.897722,89.4199265 109.247097,90.4459361 C109.595685,91.4715513 109.770175,92.6166442 109.770175,93.8820034 L109.770175,95.4210178 L98.391648,95.4210178 C98.5878024,96.3594892 99.0131973,97.1063232 99.6670451,97.6627027 C100.320893,98.2194766 101.127174,98.4978635 102.086282,98.4978635 C102.892563,98.4978635 103.574377,98.3176612 104.129753,97.9576509 C104.685918,97.5972463 105.170395,97.1343197 105.585156,96.5661107 L109.017857,99.0869712 Z" id="Fill-12" fill="#FF6E31"></path>
                    <polygon id="Fill-14" fill="#FF6E31" points="115.0665 93.3261365 109.769939 85.928379 115.556886 85.928379 118.369219 90.2492908 121.082688 85.928379 126.543105 85.928379 121.376919 93.3261365 127.491184 101.836259 121.704237 101.836259 118.23845 96.5338951 114.51073 101.836259 108.788773 101.836259"></polygon>
                    <polygon id="Fill-16" fill="#FF6E31" points="20.1627363 114.147072 16.5330932 114.147072 16.5330932 123.930046 15.2301242 123.930046 15.2301242 114.147072 11.6004811 114.147072 11.6004811 112.936129 20.1627363 112.936129"></polygon>
                    <g id="Group-20" transform="translate(20.875864, 112.774301)">
                        <mask id="mask-2" fill="white">
                            <use xlink:href="#path-1"></use>
                        </mask>
                        <g id="Clip-19"></g>
                        <path d="M8.43814226,6.9633005 C8.43814226,7.56305474 8.36291038,8.1332353 8.21323437,8.67108197 C8.06316449,9.20932295 7.82525842,9.68289615 7.49991005,10.0921959 C7.1741678,10.5011013 6.74759119,10.8272004 6.22018022,11.0700989 C5.69276925,11.3129974 5.05152574,11.4352353 4.29684357,11.4352353 C3.54176752,11.4352353 2.90052401,11.3129974 2.37350692,11.0700989 C1.84609595,10.8272004 1.41951934,10.5011013 1.09377709,10.0921959 C0.768034841,9.68289615 0.529734888,9.20932295 0.380058884,8.67108197 C0.23038288,8.1332353 0.155150994,7.56305474 0.155150994,6.9633005 L0.155150994,0.161748316 L1.45812,0.161748316 L1.45812,6.77678916 C1.45812,7.22197163 1.50459833,7.65177578 1.59794889,8.06541299 C1.69090557,8.47983883 1.84609595,8.84694679 2.06312616,9.16831412 C2.28015636,9.48889281 2.56966127,9.74519804 2.93203475,9.93683549 C3.29362046,10.1284729 3.74855674,10.2242917 4.29684357,10.2242917 C4.84473652,10.2242917 5.2996728,10.1284729 5.66165239,9.93683549 C6.02363199,9.74519804 6.3131369,9.48889281 6.5301671,9.16831412 C6.74759119,8.84694679 6.90278157,8.47983883 6.99573825,8.06541299 C7.08869493,7.65177578 7.13517326,7.22197163 7.13517326,6.77678916 L7.13517326,0.161748316 L8.43814226,0.161748316 L8.43814226,6.9633005 Z" id="Fill-18" fill="#FF6E31" mask="url(#mask-2)"></path>
                    </g>
                    <path d="M39.2255115,114.613035 L39.1943947,114.613035 L36.9141989,120.016738 L41.3969952,120.016738 L39.2255115,114.613035 Z M38.6362607,112.93601 L39.8616345,112.93601 L44.5303442,123.929927 L43.010345,123.929927 L41.8932893,121.227682 L36.4025433,121.227682 L35.2701262,123.929927 L33.7966053,123.929927 L38.6362607,112.93601 Z" id="Fill-21" fill="#FF6E31"></path>
                    <polygon id="Fill-23" fill="#FF6E31" points="45.3676633 112.93605 46.6706323 112.93605 46.6706323 117.594102 52.5335989 117.594102 52.5335989 112.93605 53.8365679 112.93605 53.8365679 123.929967 52.5335989 123.929967 52.5335989 118.805834 46.6706323 118.805834 46.6706323 123.929967 45.3676633 123.929967"></polygon>
                    <path d="M61.0493757,122.998396 C61.6902254,122.998396 62.2771129,122.879313 62.8096443,122.641146 C63.3417819,122.402979 63.7994754,122.07688 64.1823308,121.662849 C64.5651863,121.248817 64.862175,120.764992 65.0744786,120.210978 C65.2859944,119.657359 65.3919493,119.064308 65.3919493,118.433008 C65.3919493,117.801314 65.2859944,117.209052 65.0744786,116.655039 C64.862175,116.101419 64.5651863,115.6172 64.1823308,115.202774 C63.7994754,114.789531 63.3417819,114.463037 62.8096443,114.224871 C62.2771129,113.986704 61.6902254,113.867621 61.0493757,113.867621 C60.4077383,113.867621 59.8212447,113.986704 59.2883194,114.224871 C58.7561818,114.463037 58.2984883,114.789531 57.9160268,115.202774 C57.5331713,115.6172 57.2357887,116.101419 57.023879,116.655039 C56.8119693,117.209052 56.7060144,117.801314 56.7060144,118.433008 C56.7060144,119.064308 56.8119693,119.657359 57.023879,120.210978 C57.2357887,120.764992 57.5331713,121.248817 57.9160268,121.662849 C58.2984883,122.07688 58.7561818,122.402979 59.2883194,122.641146 C59.8212447,122.879313 60.4077383,122.998396 61.0493757,122.998396 M61.0493757,124.20934 C60.211584,124.20934 59.4439037,124.064231 58.7455469,123.774804 C58.0475841,123.484982 57.4429718,123.083962 56.9309223,122.570958 C56.4192667,122.058742 56.0210498,121.447946 55.7366654,120.738967 C55.452281,120.029987 55.3100888,119.261071 55.3100888,118.433008 C55.3100888,117.604945 55.452281,116.836424 55.7366654,116.12705 C56.0210498,115.417676 56.4192667,114.807275 56.9309223,114.295059 C57.4429718,113.782054 58.0475841,113.381035 58.7455469,113.091213 C59.4439037,112.801785 60.211584,112.656283 61.0493757,112.656283 C61.8867736,112.656283 62.6544539,112.801785 63.3528107,113.091213 C64.0503796,113.381035 64.6553858,113.782054 65.1674353,114.295059 C65.6790909,114.807275 66.0773078,115.417676 66.3612983,116.12705 C66.6460766,116.836424 66.7882688,117.604945 66.7882688,118.433008 C66.7882688,119.261071 66.6460766,120.029987 66.3612983,120.738967 C66.0773078,121.447946 65.6790909,122.058742 65.1674353,122.570958 C64.6553858,123.083962 64.0503796,123.484982 63.3528107,123.774804 C62.6544539,124.064231 61.8867736,124.20934 61.0493757,124.20934" id="Fill-25" fill="#FF6E31"></path>
                    <path d="M69.5647981,117.780652 L70.7279382,117.780652 C71.0899178,117.780652 71.4648956,117.770794 71.8528715,117.749896 C72.2404536,117.728997 72.5973127,117.661963 72.9226611,117.548006 C73.2487972,117.434049 73.5174262,117.255424 73.729336,117.012131 C73.9412457,116.769232 74.0475944,116.419869 74.0475944,115.96404 C74.0475944,115.570907 73.9699992,115.255454 73.8148088,115.016499 C73.6596184,114.778727 73.4551925,114.59537 73.201925,114.46564 C72.9486574,114.336304 72.664273,114.251132 72.3487718,114.209335 C72.0336644,114.167932 71.7154059,114.147033 71.3947842,114.147033 L69.5647981,114.147033 L69.5647981,117.780652 Z M68.2614352,112.936089 L71.0694358,112.936089 C71.5964529,112.936089 72.1211067,112.96724 72.6433972,113.029148 C73.1660815,113.091055 73.6336221,113.225911 74.0475944,113.433321 C74.4607789,113.640337 74.7967622,113.943172 75.0555441,114.341036 C75.3139322,114.740084 75.4435201,115.280691 75.4435201,115.96404 C75.4435201,116.771598 75.2004935,117.423797 74.7144404,117.920634 C74.2283873,118.417472 73.5560269,118.733319 72.6981471,118.867781 L75.8157407,123.930006 L74.2181463,123.930006 L71.2399877,118.99199 L69.5647981,118.99199 L69.5647981,123.930006 L68.2614352,123.930006 L68.2614352,112.936089 Z" id="Fill-27" fill="#FF6E31"></path>
                    <path d="M78.4214423,117.780652 L79.5845824,117.780652 C79.946562,117.780652 80.3211459,117.770794 80.7095158,117.749896 C81.0970978,117.728997 81.4535631,117.661963 81.7793053,117.548006 C82.1054415,117.434049 82.3740705,117.255424 82.5859802,117.012131 C82.7978899,116.769232 82.9038448,116.419869 82.9038448,115.96404 C82.9038448,115.570907 82.8266435,115.255454 82.6714531,115.016499 C82.5162627,114.778727 82.3122307,114.59537 82.0585692,114.46564 C81.8053017,114.336304 81.5209173,114.251132 81.205416,114.209335 C80.8903086,114.167932 80.5720502,114.147033 80.2514284,114.147033 L78.4214423,114.147033 L78.4214423,117.780652 Z M77.1184733,112.936089 L79.9256862,112.936089 C80.453491,112.936089 80.9781448,112.96724 81.5004353,113.029148 C82.0223319,113.091055 82.4902663,113.225911 82.9038448,113.433321 C83.3178171,113.640337 83.6538003,113.943172 83.9121884,114.341036 C84.1709703,114.740084 84.3001643,115.280691 84.3001643,115.96404 C84.3001643,116.771598 84.0571378,117.423797 83.5706908,117.920634 C83.0850315,118.417472 82.413065,118.733319 81.5543974,118.867781 L84.6723849,123.930006 L83.0743966,123.930006 L80.0966319,118.99199 L78.4214423,118.99199 L78.4214423,123.930006 L77.1184733,123.930006 L77.1184733,112.936089 Z" id="Fill-29" fill="#FF6E31"></path>
                    <path d="M91.0783997,122.998396 C91.7196432,122.998396 92.3057429,122.879313 92.8390622,122.641146 C93.3711998,122.402979 93.8288932,122.07688 94.2113548,121.662849 C94.5938164,121.248817 94.8915928,120.764992 95.1038964,120.210978 C95.3154123,119.657359 95.4213671,119.064308 95.4213671,118.433008 C95.4213671,117.801314 95.3154123,117.209052 95.1038964,116.655039 C94.8915928,116.101419 94.5938164,115.6172 94.2113548,115.202774 C93.8288932,114.789531 93.3711998,114.463037 92.8390622,114.224871 C92.3057429,113.986704 91.7196432,113.867621 91.0783997,113.867621 C90.4371562,113.867621 89.8506626,113.986704 89.3177372,114.224871 C88.7852058,114.463037 88.3275123,114.789531 87.9450507,115.202774 C87.5625892,115.6172 87.2648127,116.101419 87.0532969,116.655039 C86.8409933,117.209052 86.7354323,117.801314 86.7354323,118.433008 C86.7354323,119.064308 86.8409933,119.657359 87.0532969,120.210978 C87.2648127,120.764992 87.5625892,121.248817 87.9450507,121.662849 C88.3275123,122.07688 88.7852058,122.402979 89.3177372,122.641146 C89.8506626,122.879313 90.4371562,122.998396 91.0783997,122.998396 M91.0783997,124.20934 C90.240608,124.20934 89.4729276,124.064231 88.7749648,123.774804 C88.077002,123.484982 87.4719958,123.083962 86.9603402,122.570958 C86.4482907,122.058742 86.0500738,121.447946 85.7656893,120.738967 C85.4813049,120.029987 85.3395066,119.261071 85.3395066,118.433008 C85.3395066,117.604945 85.4813049,116.836424 85.7656893,116.12705 C86.0500738,115.417676 86.4482907,114.807275 86.9603402,114.295059 C87.4719958,113.782054 88.077002,113.381035 88.7749648,113.091213 C89.4729276,112.801785 90.240608,112.656283 91.0783997,112.656283 C91.9157976,112.656283 92.6834779,112.801785 93.3822285,113.091213 C94.0797975,113.381035 94.6844097,113.782054 95.1968531,114.295059 C95.7085087,114.807275 96.1063318,115.417676 96.3907162,116.12705 C96.6754945,116.836424 96.8176867,117.604945 96.8176867,118.433008 C96.8176867,119.261071 96.6754945,120.029987 96.3907162,120.738967 C96.1063318,121.447946 95.7085087,122.058742 95.1968531,122.570958 C94.6844097,123.083962 94.0797975,123.484982 93.3822285,123.774804 C92.6834779,124.064231 91.9157976,124.20934 91.0783997,124.20934" id="Fill-31" fill="#FF6E31"></path>
                    <g id="Group-35" transform="translate(22.451401, 0.000000)">
                        <mask id="mask-4" fill="white">
                            <use xlink:href="#path-3"></use>
                        </mask>
                        <g id="Clip-34"></g>
                        <path d="M34.2867942,68.5520278 C15.5000925,68.5520278 0.215809164,53.2509999 0.215809164,34.4437164 C0.215809164,33.1373484 1.27417606,32.077822 2.57911449,32.077822 C3.88405291,32.077822 4.94241981,33.1373484 4.94241981,34.4437164 C4.94241981,50.642207 18.1060305,63.820239 34.2867942,63.820239 C50.4671641,63.820239 63.6311686,50.642207 63.6311686,34.4437164 C63.6311686,18.2452258 50.4671641,5.06719384 34.2867942,5.06719384 C28.5928039,5.06719384 23.0717288,6.70084395 18.3203035,9.79188503 C17.2256992,10.5036249 15.7616316,10.1925098 15.0510644,9.09710069 C14.3397095,8.00129725 14.6504842,6.53601997 15.7450884,5.82388574 C21.2649819,2.23324662 27.6766292,0.335404968 34.2867942,0.335404968 C53.073496,0.335404968 68.3577793,15.6364329 68.3577793,34.4437164 C68.3577793,53.2509999 53.073496,68.5520278 34.2867942,68.5520278" id="Fill-33" fill="#FF6E31" mask="url(#mask-4)"></path>
                    </g>
                    <path d="M57.1643775,48.7195629 C58.0021692,48.6899892 58.7812722,48.5022949 59.5001109,48.1576629 C60.2185558,47.8134253 60.8475889,47.356019 61.3864225,46.7862328 C61.92565,46.2168409 62.343955,45.5496586 62.6440948,44.7850804 C62.9430529,44.0208965 63.0935167,43.1888903 63.0935167,42.2898504 C63.0935167,41.8399362 63.0324646,41.3754322 62.9135116,40.8959443 C62.7933769,40.4168507 62.5913143,39.9515581 62.3073238,39.5020381 C62.0221516,39.0521239 61.6180264,38.6329663 61.0945543,38.242988 C60.5699005,37.8537984 59.9042361,37.5087721 59.0955918,37.2090921 L57.1643775,36.4894659 L57.1643775,48.7195629 Z M55.0086492,20.6624208 C54.2898105,20.7822927 53.6083908,21.0070527 52.964784,21.3367007 C52.3207833,21.6671373 51.7524083,22.0941812 51.2580836,22.6182268 C50.7641528,23.1430611 50.3671175,23.7577993 50.0677655,24.4616529 C49.7684135,25.1662951 49.6187375,25.9383653 49.6187375,26.7774692 C49.6187375,28.3665617 50.0378303,29.5648872 50.8764098,30.3744174 C51.7145954,31.1835533 52.8371655,31.8436379 54.2449077,32.3526995 L55.0086492,32.6224114 L55.0086492,20.6624208 Z M55.0086492,51.1473649 C54.2000049,51.1473649 53.376393,51.0499689 52.5382073,50.8551769 C51.6996278,50.6599906 50.8834997,50.360705 50.0906108,49.956137 C49.2965402,49.5511748 48.555644,49.0567028 47.8671344,48.4723269 C47.177837,47.8875567 46.5645593,47.2061791 46.0257256,46.4266168 L48.5859731,44.6727004 C49.3044179,45.9021769 50.2320152,46.8690391 51.3707345,47.5728927 C52.5082721,48.2775349 53.7206478,48.6600212 55.0086492,48.7195629 L55.0086492,35.6799357 L51.8197625,34.5111838 C50.7113723,34.1215999 49.8208001,33.5967656 49.1472581,32.9374697 C48.4737161,32.2781738 47.9490623,31.5885156 47.5752662,30.8688893 C47.2006823,30.1496574 46.953323,29.4458038 46.8339761,28.7557513 C46.7142353,28.0664874 46.6543649,27.4671275 46.6543649,26.9572772 C46.6543649,25.6982271 46.9013303,24.5515569 47.395655,23.5172667 C47.8895858,22.4833708 48.5406764,21.591823 49.3493207,20.8422287 C50.1575711,20.0930288 51.056021,19.4932746 52.0442765,19.0437546 C53.032532,18.5938404 54.0203937,18.3241284 55.0086492,18.2342244 L55.0086492,15.2216522 L57.1643775,15.2216522 L57.1643775,18.2342244 C57.9123636,18.2342244 58.6615314,18.2870627 59.4099115,18.3915564 C60.1586854,18.4968387 60.884614,18.699517 61.5884851,18.9984083 C62.2919623,19.2984826 62.9658982,19.7109369 63.609505,20.2349825 C64.2531118,20.7598167 64.8742672,21.4266047 65.473759,22.2357406 L63.0033172,24.034609 C62.3140198,22.9553668 61.4384152,22.1237549 60.3757156,21.5389846 C59.312622,20.9546087 58.2420447,20.6624208 57.1643775,20.6624208 L57.1643775,33.3420377 L60.3083614,34.4212798 C60.9665419,34.6614181 61.6400839,34.9910661 62.3293813,35.4102237 C63.0178909,35.83017 63.6390463,36.3624962 64.1936353,37.0064138 C64.7474365,37.6515144 65.1968584,38.422796 65.5411132,39.3222302 C65.8849742,40.2212701 66.0574954,41.2709385 66.0574954,42.4696584 C66.0574954,43.7586765 65.81053,44.9199364 65.3162053,45.9542266 C64.8222745,46.9885168 64.1637001,47.8808533 63.3404821,48.6296589 C62.5164763,49.3792531 61.5664276,49.9715153 60.4879726,50.405657 C59.4099115,50.8397986 58.302309,51.0870346 57.1643775,51.1473649 L57.1643775,54.1599371 L55.0086492,54.1599371 L55.0086492,51.1473649 Z" id="Fill-36" fill="#FF6E31"></path>
                    <path d="M32.3173731,37.5982423 C31.712367,37.5982423 31.1077547,37.3671733 30.6461224,36.9054296 L25.3889497,31.6424974 L20.131777,36.9054296 C19.2089063,37.828917 17.7121462,37.828917 16.7892755,36.9054296 C15.8664048,35.9811535 15.8664048,34.4835423 16.7892755,33.5592662 L25.3889497,24.950565 L33.9886239,33.5592662 C34.9114946,34.4835423 34.9114946,35.9811535 33.9886239,36.9054296 C33.5269916,37.3671733 32.9223793,37.5982423 32.3173731,37.5982423" id="Fill-38" fill="#FF6E31"></path>
                </g>
            </g>
        </g>
    </g>
</svg>